<?xml version="1.0" encoding="UTF-8"?>
<!DOCTYPE svg PUBLIC "-//W3C//DTD SVG 1.1//EN" "http://www.w3.org/Graphics/SVG/1.1/DTD/svg11.dtd">
<!-- Creator: CorelDRAW 2018 (64-Bit Evaluation Version) -->
<svg xmlns="http://www.w3.org/2000/svg" xml:space="preserve" width="8.5in" height="11in" version="1.1" style="shape-rendering:geometricPrecision; text-rendering:geometricPrecision; image-rendering:optimizeQuality; fill-rule:evenodd; clip-rule:evenodd"
viewBox="0 0 8500 11000"
 xmlns:xlink="http://www.w3.org/1999/xlink">
 <defs>
  <style type="text/css">
   <![CDATA[
    .fil0 {fill:#00BFD8}
    .fil23 {fill:#02ADED}
    .fil33 {fill:#060506}
    .fil38 {fill:#110B15}
    .fil14 {fill:#14163C}
    .fil50 {fill:#171737}
    .fil32 {fill:#18A127}
    .fil28 {fill:#191829}
    .fil27 {fill:#1A1A35}
    .fil57 {fill:#1B1B3A}
    .fil61 {fill:#271A1F}
    .fil20 {fill:#2A2B51}
    .fil43 {fill:#2A2C52}
    .fil39 {fill:#2C2D55}
    .fil13 {fill:#2D2C51}
    .fil71 {fill:#2E4671}
    .fil18 {fill:#3D4167}
    .fil52 {fill:#465A85}
    .fil9 {fill:#4C2311}
    .fil63 {fill:#4F5571}
    .fil44 {fill:#511424}
    .fil73 {fill:#514856}
    .fil41 {fill:#516A93}
    .fil29 {fill:#57027B}
    .fil26 {fill:#576FA3}
    .fil17 {fill:#688AB6}
    .fil59 {fill:#6B91B6}
    .fil12 {fill:#6C96C4}
    .fil49 {fill:#6D99C3}
    .fil19 {fill:#6E99C6}
    .fil53 {fill:#716974}
    .fil48 {fill:#729AC5}
    .fil45 {fill:#7396C4}
    .fil35 {fill:#7593B6}
    .fil7 {fill:#75D9EF}
    .fil51 {fill:#799BC8}
    .fil31 {fill:#849AB7}
    .fil42 {fill:#88A6C5}
    .fil72 {fill:#8A6F74}
    .fil54 {fill:#8C7887}
    .fil37 {fill:#8CA4BC}
    .fil16 {fill:#8CBCE4}
    .fil67 {fill:#8D8997}
    .fil66 {fill:#A5665F}
    .fil3 {fill:#A7A9AC}
    .fil62 {fill:#A7B5C8}
    .fil68 {fill:#B3AAB3}
    .fil6 {fill:#B4EFF9}
    .fil56 {fill:#CFBBC5}
    .fil55 {fill:#D3C9D2}
    .fil36 {fill:#D6E7F9}
    .fil30 {fill:#D8DAE6}
    .fil34 {fill:#DF0419}
    .fil22 {fill:#E5028B}
    .fil4 {fill:#E6E7E8}
    .fil65 {fill:#E8F9FF}
    .fil58 {fill:#EADAE8}
    .fil2 {fill:#EFEFEF}
    .fil70 {fill:#F3EF59}
    .fil47 {fill:#F3FDFE}
    .fil24 {fill:#F5A49B}
    .fil60 {fill:#F5F2FE}
    .fil64 {fill:#F7EBF9}
    .fil25 {fill:#F9FEFE}
    .fil46 {fill:#FAE3DB}
    .fil69 {fill:#FAF99D}
    .fil5 {fill:#FAFEFF}
    .fil21 {fill:#FBEE06}
    .fil40 {fill:#FCFBFC}
    .fil11 {fill:#FDFDFE}
    .fil15 {fill:#FEFEFF}
    .fil1 {fill:#FFD04D}
    .fil8 {fill:white;fill-opacity:0.250980}
    .fil10 {fill:#00B3B7;fill-opacity:0.450980}
   ]]>
  </style>
 </defs>
 <g id="Layer_x0020_1">
  <metadata id="CorelCorpID_0Corel-Layer"/>
  <g id="_1191962032">
   <rect class="fil0" x="93.76" y="5884.79" width="81.31" height="81.31"/>
   <rect class="fil1" x="93.76" y="6027.25" width="81.31" height="81.31"/>
   <rect class="fil2" x="197.47" y="6062.36" width="257.75" height="46.21"/>
   <rect class="fil2" x="197.47" y="5919.89" width="257.75" height="46.21"/>
   <rect class="fil3" x="6.04" y="6878.97" width="122.76" height="23.34"/>
   <rect class="fil4" x="12.65" y="6880.22" width="109.54" height="20.83"/>
   <ellipse class="fil3" cx="178.82" cy="6890.66" rx="14.34" ry="11.69"/>
   <ellipse class="fil3" cx="145.71" cy="6848.07" rx="14.34" ry="11.69"/>
   <rect class="fil3" x="6.04" y="6793.78" width="122.76" height="23.34"/>
   <rect class="fil4" x="12.65" y="6795.04" width="109.54" height="20.83"/>
   <ellipse class="fil3" cx="178.82" cy="6805.47" rx="14.34" ry="11.69"/>
   <polygon class="fil5" points="226.02,6911.28 235.74,6766.85 143.84,6766.85 153.56,6911.28 "/>
   <polygon class="fil6" points="161.81,6902.46 153.27,6775.67 226.31,6775.67 217.78,6902.46 "/>
   <polygon class="fil7" points="156.07,6817.28 161.81,6902.46 217.78,6902.46 223.51,6817.28 "/>
   <path class="fil8" d="M167.71 6884.1l15.28 0 -9.03 -90.71c-1.85,-16.2 -16.99,-17.08 -14.61,1.39l8.36 89.32z"/>
   <rect class="fil9" x="120.49" y="6948.56" width="50.85" height="1000.03"/>
   <path id="_Path_39" class="fil10" d="M140.42 7327.6c-2.71,0.65 -5.65,1.29 -8.71,1.89 7.77,-40.9 56.94,-297.76 72.95,-390.92 31.6,-183.91 -1.3,-277.06 -19.83,-310.44 -14.98,-26.98 -43.84,-41.26 -68.39,-55.62 55.97,5.88 105.81,32.25 119.11,102.7 34.31,181.43 -95.13,652.39 -95.13,652.39z" data-name="&lt;Path&gt;"/>
   <path class="fil11" d="M5160.2 6297.58c-25.07,-542.47 695.4,-506.18 665.36,-22.27l0.9 20.37c78.61,4.23 116.69,43.04 163.42,80.71 29.33,12.06 24.83,-19.18 30.07,13.26l3.96 27.17c89.87,181.11 84.42,299.99 -52.58,450.24 -18.71,29.98 26.85,11.6 -47.27,40.81 -70.5,13.38 -89.55,46.97 -209.94,36.96 -57.79,-4.8 -144.57,-29.66 -167.38,-72.36l-37.86 -12.85c-195.69,126.94 -395.62,128.44 -523.84,-70.23 -53.57,-83.01 -64.64,-204.72 -22.7,-306.89 36.54,-89.02 101.08,-150.5 197.86,-184.91zm-774.41 -83.04c2.75,214.52 -26.67,895.17 12.75,1048.8 83.96,327.19 407.04,317.08 777.96,292.44 8.44,-16.26 -0.42,-2.62 21.05,-12.93 236.77,-94.64 -42.41,-363.41 335.46,-379.89l951.24 -2.51 -0.78 -946.56 1.54 8.99c-10.03,-354.13 52.67,-459.7 -144.37,-649.24 -46.83,-28.83 -55.48,-35.77 -114.9,-42.36l-2020.81 -0.48c57.61,75.96 129.98,130.59 165.31,266.28 26.96,103.54 16.5,301.48 15.54,417.46z"/>
   <path class="fil12" d="M6133.49 5221.37l31.83 53.41c-42.22,-40.56 -29.65,-43.06 -31.83,-53.41zm0 0c-2.29,-2.21 -5.81,-4.99 -7.08,-6.42 -1.27,-1.41 -5.36,-4.7 -6.87,-6.57l-0.65 -27.51c14.95,23.73 8.15,16.06 14.59,40.5zm-2357.47 996.43l609.77 -3.26c0.96,-115.98 11.42,-313.92 -15.54,-417.46 -35.34,-135.69 -107.7,-190.32 -165.31,-266.28l2020.81 0.48c-58.83,-38.95 -1797.47,-7.76 -2037.57,-13l-65.18 -126.9 -31.46 -42.13c-32.03,-28.81 -26.66,74.61 -26.73,-58.13l2153.04 0c18.52,91.07 48.35,42.94 49.66,141.44l73.14 141.07c197.04,189.54 134.35,295.11 144.37,649.24l309.74 -3.98 90.17 0.3 4.25 76.76 9.02 -1.3 4.11 -77.63 155.24 -0.99 0.11 -282.49c-18.73,-151.32 -78.66,-253.63 -137.41,-359.17l528.72 -16.19 -406.55 1.09 -125.45 -2.53c-131.09,-177.57 -209.34,-487.71 -374.58,-618.72l-38.43 -33.87c-393.36,-9.96 -822.41,4.24 -1222.8,4.24 -408.57,0 -818.65,3.35 -1227,-0.4 -66.02,1.25 -112.58,14.55 -171.13,8.76 -83.73,-8.27 -88.73,4.99 -153.79,3.23 -38.06,-1.03 -38.28,-10.22 -83.89,-9.87 -47.79,0.37 -41.13,9.44 -83.86,11 -49.8,1.81 -93.22,-12.95 -158.89,-11.02l-181.45 0.8c125.67,101.05 118.52,114.39 202.01,266.85l317.4 605.74c49.91,139.53 23.67,284.61 35.44,434.31z"/>
   <path class="fil13" d="M2814.5 4903.53l-0.93 1314.45 296.71 1.3c89.13,-7.91 240.02,-22.56 314.04,8.51 13.55,123.61 -31.06,106.2 -117.07,136.1 -59.22,20.59 -140.26,57.41 -195.06,57.71l1.39 1262.1c-153.87,10.7 -226.86,-4.84 -249.52,165.68l-394 0.26 -506.2 0.46 -43.63 -1.14 -490.33 0.15 -774.02 0.95c23.26,18.66 11.98,17.91 94.43,17.78l7466.92 -0.88c73.11,0.05 198.26,12.03 238.75,-16.72l-343.1 -0.94 -1989.46 0.67 -375.95 0.72 -1965.75 -3.86 -80.43 1.48c-61.04,-89.76 1.5,-94.85 -133.13,-162.44l-46.71 -1.09 -88.84 1.76 -4 -1368.41 10.51 -99.99 92.31 -8.33 244.58 7.98c-11.78,-149.7 14.46,-294.78 -35.44,-434.31l-317.4 -605.74c-83.49,-152.47 -76.34,-165.81 -202.01,-266.85l181.45 -0.8 4.76 -16.55c-61.69,-2.97 -218.65,12.5 -246.63,5.48l11.22 -69.15c17.88,-33.31 12.24,-33.33 12.83,-83.07 0.38,-32.27 -0.91,-66.24 -0.86,-98.88 0.11,-77.3 11.18,-130.91 -19.5,-199.96l-9.34 2.28 -1.23 455.93 -339.37 -2.63z"/>
   <path class="fil14" d="M1903.82 5934.19c19.24,-14.92 40.15,-29.72 69.59,-40.41 93.78,-34.06 36.07,-9.32 57.08,7.89 -19.48,7.32 -45.6,19.87 -68.89,28.75l-57.78 3.78zm-160.88 -305.33c-60.19,56.44 -62.81,31.56 -154.21,6.2l-18.15 82.69c21.8,156.91 -57.81,817.78 -77.57,1018.87l-67.25 807.74 129.46 8.78 93.46 -2.13 45.79 -0.84 209.7 -1570.05 53.73 1547.98 33.93 8.09 189.46 1.67 35.96 -4.76 -14.38 -1614.74 -15.2 -166.01 -24.34 -64.59c-50.23,2.11 -103.7,2.37 -155.15,1.63 -68.67,-1 -69.49,4.07 -82.66,-53.89 -36.64,13.94 -2.28,25.48 -41.82,-26.3 -27.47,-3.71 -35.72,-1.23 -55.52,-3.59l-39.34 -9.71 -18.53 0.39c-8.51,11.91 -17.37,22.32 -27.4,32.56z"/>
   <path class="fil15" d="M6123.42 7849.98l1989.46 -0.67c68.74,-41.67 136.09,-59.88 162.35,-137.04 18.71,-54.96 13.64,-213.52 9.17,-281.05l-379.93 0.44 -95.56 -5.12 -1551.89 4.74c-15.71,269.61 50.28,265.71 -133.6,418.69z"/>
   <path class="fil16" d="M6802.21 7163.89l-317.96 -3.45 -951.24 2.51c150,132.76 102.44,170.81 114.32,392.89 -98.3,1.77 -386.69,26.45 -449.78,-12.99 -21.47,10.31 -12.61,-3.33 -21.05,12.93l467.78 13.91c0.6,60.91 -1.58,122.45 23.57,173.06 17.08,34.38 27.46,36.73 43.47,53.81 42.35,45.21 18.27,-5.63 36.16,54.13l375.95 -0.72c183.88,-152.98 117.89,-149.07 133.6,-418.69l1551.89 -4.74c-4.61,-227.7 -97.93,-262.22 -318.67,-261.94 -193.04,0.24 -393.91,5.2 -590.66,-2.66l-1.39 -867.29 -9.02 1.3 1.07 869.34 -88.04 -1.4z"/>
   <path class="fil11" d="M6915.66 4187.09l-81.69 7.64 -5.64 100.17c-70.96,12.44 -329.33,15.44 -393.6,-3.5l-4.72 -109.61c-113.25,27.58 -96.67,-16.94 -94.77,-120.78 1.34,-73.13 -1.63,-143.99 3.61,-219.97l93.35 -13.72 4.89 -117.46 390.53 6.26 3.42 106.89c107.98,39.23 96.65,-7.76 94.97,153.41 -0.86,82.65 -1.46,144.23 -10.35,210.66zm308.16 -210.41c-151.82,-92.52 -180.04,-150.79 -202.04,-371.17l6.3 -47.74c-56.69,-20.68 -92.18,-61.29 -159.28,-91.63 -469.3,-212.22 -1022.7,282.89 -756.51,812.38 97.44,193.83 365.21,386.81 684.37,292.33 266,-78.75 401.43,-276.73 427.16,-594.15z"/>
   <path class="fil11" d="M3043.24 3707.27c-35.08,-27.44 -73.19,-54.26 -81.82,-106.19 68.67,15.25 25.06,31.5 103.56,60.97 24.1,-41.91 92.67,-141.53 142.79,-156.26 -6.47,54.91 -135.65,187.24 -164.54,201.48zm154.73 -92.78c45.15,35.52 36.83,110.63 20.69,159.16 -54.89,165 -278.09,206.13 -388.59,67.32 -100.25,-125.93 -34.7,-329.69 135.78,-360.26 95.22,-17.07 133.24,0.44 157.78,55.87 -368.41,-88.8 -343.37,215.56 -248.76,302.19 60.66,55.56 166.61,72.33 245.7,18.76 118.26,-80.09 43.62,-172.67 77.4,-243.05zm-257.7 -387.83c-652.91,110.62 -478.61,1047.42 137.57,953.74 242.5,-36.87 447.44,-253.73 406.53,-548.98 -32.86,-237.12 -267.4,-451.63 -544.1,-404.75z"/>
   <path class="fil11" d="M1553.31 5079.4c17.45,-29.71 37.78,-42.24 68.65,-65.46 38.22,-28.74 30.56,-35.52 74.81,-40.03 -23.39,27.95 -104.31,96.09 -143.46,105.48zm-214.92 -140.15c5.29,30.84 80.55,128.52 103.78,142.16l28.79 50.09c34.58,-13.72 33.95,-28.59 84.98,-36.4 10.48,89.82 -18.47,274.58 35.43,331.63l68.67 -35.46c53.56,68.73 -36.73,30.02 51.68,85.23 25.02,15.63 52.74,25.47 82.1,43.33 7.3,85.5 -42.26,7.61 -3.49,63.89l107.39 0.04c33.89,-76.58 66.37,-270.69 86.09,-359.81 63.09,-285.2 32.74,-245.24 193.6,-242.24 11.85,-30.16 13.98,-49.6 13.98,-96.04 53.16,42.94 32.52,-46.98 41.87,88.46l79.27 -7.77c-63.23,-90.42 -35.19,-192.89 -220.78,-284.81 -7.76,9.8 -19.44,15.73 -29.11,23.72 -72.89,92.47 -288.95,15.89 -344.52,-50.64 -132.33,15.6 -282.26,131.74 -360.06,223.3 -36.54,43.01 -27.55,16.87 -19.68,61.32z"/>
   <path class="fil17" d="M4091.54 5349.24c25.43,-15.98 18.53,-18.59 18.53,11.63l12.93 30.5 38.61 63.57c428.06,30.7 1424.88,-8.77 1986.88,1.38 136.21,2.46 102.27,2.04 119.02,-23.76 -1.31,-98.5 -31.15,-50.37 -49.66,-141.44l-2153.04 0c0.07,132.74 -5.3,29.31 26.73,58.13z"/>
   <path class="fil18" d="M2338.62 5325.94c-10.13,5.7 -23.34,22.83 -54.18,9.82 -134.25,-56.64 124.64,-173.26 54.18,-9.82zm-413.06 309.57c13.17,57.96 13.98,52.89 82.66,53.89 51.44,0.75 104.91,0.48 155.15,-1.63l24.34 64.59 -4.26 -62.63 188.58 3.61 93.46 -0.43c15.13,-25.84 22.96,-54.28 39.3,-74.65l23.63 -158.67 5.96 -47.38c-68.57,-16.98 -89.69,-66.02 -62.2,-146.32 19.05,-55.64 59.51,-57.3 92.24,-73.81 25.49,-12.87 7.35,2.8 26.18,-17.87 22.61,-115.8 43.14,-101.75 -20.46,-179.23 -29.72,28.21 10.56,5.47 -30.24,19.96l-460.43 -2.44c-44.44,64.24 -131.92,507.83 -153.91,623.01z"/>
   <path class="fil19" d="M7378.36 3463.42c54.8,92.69 69.01,-2.28 140.13,134.2l42.01 57.97c3.08,3.26 7.7,6.98 11.38,10.63 -84.84,9.17 -33.55,47.22 -83.78,98.54 -37.36,38.18 -74.3,19.16 -109.74,75.79 -1.99,-2.85 -4.67,-11.04 -5.69,-8.73 -0.73,1.65 -3.02,-15.15 -37.09,-34.04 -35.48,-19.67 -40.88,-7.52 -67.49,-32.52 -47.35,-44.5 -5.03,-88.34 -83.97,-99.3l48.93 -59.95c52.59,-96.83 26.04,-60.38 96.79,-97.26 56.75,-29.58 15.76,-0.03 48.52,-45.34zm-356.57 142.09c22,220.38 50.22,278.66 202.04,371.17 358.34,100.93 601.65,-215.88 427.7,-496.72 -108.85,-175.74 -379.82,-211.59 -529.04,-52.63 -58.59,62.42 -67.86,139.43 -100.7,178.17z"/>
   <path class="fil13" d="M7024.05 5388.92l59.69 -15.76c14.03,-0.78 41.27,0.87 56.99,0.92 50.61,0.15 74.7,-7.47 107.76,13.3 -32.72,24.19 -179.43,24.11 -224.45,1.54zm259.57 9.43l-24.45 -60.62 69.05 3.14 31.76 58.64 -76.35 -1.16zm-279.11 -51.37c44.96,-17.9 164.28,-18.01 216.14,0 -12.76,10.74 7.61,6.61 -25.09,14.1 -4.31,0.98 -24.85,2.25 -25.48,2.29 -13.36,0.87 -42.05,-0.83 -57.37,-0.84 -52.67,-0.03 -75.32,9.49 -108.19,-15.55zm-31.28 -41.94c16.47,-15.83 -1.44,-13.73 40.53,-20.76l140.9 0.1c123.2,-2.98 126.52,-16.39 161.7,22.65 -33.03,17.95 -302.93,16.49 -343.13,-2zm174.87 -106.43c1.63,3.66 4.04,8.45 4.97,10.94l7.97 21.87c0.97,2.91 3.65,17.47 4.54,22.04 -26.92,22.16 -183.94,20.36 -220.61,-1.59l-15.29 -30.71c25,-18.64 -43.79,-16.41 43.24,-15.46l175.18 -7.1zm-240.41 -19.4c12.52,-11.88 -17.17,-13.22 49.78,-18.33 12.15,-0.93 42.83,0.92 57.35,0.9 160.25,-0.15 89.54,0.48 111.27,17.43 -39.91,21.67 -182.35,16.98 -218.41,0zm158.27 -107.84l37.15 70.24c-50.6,0.39 -109.76,3.43 -159.3,1.43 -69.09,-2.8 -71.8,-15.17 -90.84,-75.97l212.99 4.3zm149.21 184.37l-102.55 -187.42 72.88 -0.83c31.9,60.85 78.45,124.98 105.47,193.44l-75.8 -5.19zm-172.74 303.54l406.55 -1.09c120.14,-60.57 24.78,-153.43 -77.27,-344.22 -87.98,-164.49 -122.38,-270.31 -257.25,-301.53 -31,22.55 -366.63,8.49 -439.11,11.51l367.09 635.33z"/>
   <path class="fil20" d="M6484.25 7160.44l317.96 3.45 -0.89 -846.46c-88.03,45.36 -238.23,70 -298.42,116.15 -6.55,-77.79 3.85,-153.98 -19.43,-219.7l0.78 946.56z"/>
   <path class="fil21" d="M5605.15 6555.05c6.9,156.3 -26.97,193.63 -82.25,289.3l23.85 28.13c22.8,42.7 109.59,67.56 167.38,72.36 120.39,10 139.44,-23.58 209.94,-36.96 2.38,-3.54 5.18,-13.53 6.9,-10.79 1.68,2.69 5.49,-7.98 7.81,-9.86 21.83,-17.59 1.52,-5.84 32.56,-20.16 137,-150.24 142.45,-269.13 52.58,-450.24l-34.03 -40.43c-46.74,-37.67 -84.81,-76.48 -163.42,-80.71 -37.46,140.27 -97.98,207.09 -221.32,259.36z"/>
   <path class="fil22" d="M5508.89 6859.62l0 -14.01c-75.87,-74.31 -95.44,-142.45 -92.08,-280.25 -153.73,-60.72 -207.1,-110.72 -256.6,-267.78 -96.78,34.41 -161.32,95.89 -197.86,184.91 -41.94,102.18 -30.87,223.89 22.7,306.89 128.22,198.68 328.15,197.18 523.84,70.23z"/>
   <path class="fil19" d="M1065.18 4131.98l68.89 -2.1 -4.22 75.27 -69.26 -10.84 4.6 -62.33zm-69.06 -63.19c55.41,-54.24 165.34,-77.31 203.2,8.28 -64.16,24.94 -33.42,-20.17 -110.83,-13.38 -70.29,6.17 -41.08,41.19 -92.37,5.1zm-62.49 -52.28c2.03,-48.3 -13.57,-18.04 19.44,-47.02 51.14,-44.91 223.55,-71.82 297.12,12.29 36.81,42.08 10.39,20.63 10.59,27.7 -3.29,1.35 -8.06,3.12 -10.16,3.24l-19.2 1.37c-2.51,-0.5 -6.66,-2.08 -9.23,-2.99 -2.14,-0.76 -27.94,-19.32 -34.94,-23.14 -113.74,-62.1 -193.58,26.71 -253.63,28.54zm327.09 301.93c49.72,25.63 48.56,43.11 82.28,63.91l-4.48 -577.2 -491.78 3.9 3.96 490.47c62.03,13.39 394.94,-21.46 410.02,18.92z"/>
   <path class="fil23" d="M5160.2 6297.58c136.76,-68.69 269.09,22.39 348.29,70.19 139.31,-67.79 97.61,-92.28 317.07,-92.46 30.04,-483.91 -690.43,-520.2 -665.36,22.27z"/>
   <path class="fil24" d="M1661.97 5568.44c4.93,-4.07 34.53,5.67 35.17,6l-35.17 -6zm-91.39 149.31l18.15 -82.69c91.41,25.35 94.02,50.24 154.21,-6.2l-0.64 -27.82 28.04 -4.74 18.53 -0.39 1.45 -12.19c-38.77,-56.28 10.78,21.61 3.49,-63.89 -29.36,-17.86 -57.07,-27.7 -82.1,-43.33 -88.41,-55.21 1.87,-16.5 -51.68,-85.23l-68.67 35.46c-26.07,33.46 -26.88,41.81 -71.14,54.42l-183.61 -273c72.8,-83.6 82.46,-27.8 105.56,-126.74 -23.23,-13.63 -98.49,-111.31 -103.78,-142.16 -68.01,14.71 -149.26,113.47 -197.89,168.28 -114.94,129.54 65.65,226.31 226.43,392.96 52.09,53.98 103.87,141.12 212.5,131.41l-8.84 85.85z"/>
   <path class="fil24" d="M1950.28 4486.12l47.22 -2.14 -2.08 78.84c-31.67,-36.32 -35.55,-25.98 -46.66,-73.62 -14.34,-10.42 -17.93,-7.73 -33.06,-34.65l34.58 31.57zm168.25 -117.83c-63.1,17.22 -65.44,-5.17 -74.13,-21.14 88.3,9.4 69.64,18.03 74.13,21.14zm2.88 -33.9c-10.13,-23.2 -8.06,13.98 -8.43,-34.44 -0.28,-37.43 8.2,-32.37 8.43,-32.93 58.69,83.54 1.53,65.36 0,67.37zm27.32 -77.95c7.63,-53.22 -36.16,10.29 9.63,-3.94 0.06,-0.02 1.48,-0.19 1.5,-0.19 15.31,-2.22 -15.01,31.18 -11.14,4.13zm-113.91 0c5.93,-54.1 -38.01,11.2 10.1,-4.18 0.07,-0.02 1.57,-0.23 1.59,-0.23 16.15,-2.63 -14.58,30.78 -11.69,4.41zm-228.24 -0.14c72.05,15.8 50.43,-8.19 66.77,63.35l-66.77 -63.35zm165.46 -84.24c29.23,-26.03 48.3,-39.96 88.97,-13.49 -9.37,8.79 3.65,16.05 -44.73,24.71 -62.92,11.27 -37.32,-6.11 -44.24,-11.22zm-18.91 -67.78l-45.79 -2.93 3.83 37 -13.25 115.73c-43.78,-35.08 -51.89,-37.1 -114.31,-14.72 -12.37,39.74 -14.61,57.42 0.13,101.17l88.79 8.21 -21.07 58.52c-7.01,47.89 -10.22,107.62 -17.58,159.06 -14.34,100.22 -25.04,49.35 -115.74,88.31 55.57,66.52 271.62,143.11 344.52,50.64 -9.47,-55.65 -14.63,-37.52 -64.11,-56.73l18.6 -161.57c92.11,1.83 126.25,-34.81 158.02,-107.65l27.46 -55.73c1.11,-1.83 3.86,-5.65 5.81,-8.46 -27.31,-26.28 -9.87,10.14 -19.08,-31.33 -7.01,-31.55 -0.41,-20.05 7.47,-42.74 -1.05,-3.32 -3.26,-11.98 -3.42,-9.88 -0.04,0.52 -12.21,-21.17 7.16,-50.05 -34.69,-4.81 -15.74,0.16 -46.53,-9.57l22.19 -23.36 -14.63 -62.7c-78.98,23.78 -127.37,17.12 -208.44,18.77z"/>
   <path class="fil19" d="M3980.11 4520.91c-11.55,-52.4 2.6,-13.46 14.79,-29.6 44.48,24.41 44.41,13.76 13.4,53.53 -27.16,-9.78 -20.88,9.22 -28.19,-23.93zm-163.52 23.17c-21.27,-28.35 -15.31,-2.3 -12.02,-43.14l42.16 4.02c2.54,32.84 16.39,21.96 -30.13,39.12zm-147.82 -45.59c6.33,76.09 -46.24,46.94 -40.84,9.47 21.61,-13.54 -33.99,-26.88 40.84,-9.47zm-206.29 -1.89l17.82 11.19c4.92,34.47 -45.41,70.3 -41.35,-10.23 44.37,-3.13 -32.91,-7.52 23.52,-0.95zm-298.04 -48.65l245.21 -0.28 1.11 388.35 98.04 11.73c7.79,-108.72 -19.73,-310.02 11.02,-401.07l77.85 10.11 2.86 391.01 96.78 -13.65 -0.45 -387.74 77.04 7.12 5.85 383.61 94.47 4.31 -0.28 -5.12c5.4,-76.5 -22.03,-335.52 23.09,-389.69l41.93 2.67 13.12 397.32 100.57 -9.29 -2.22 -391.53c-128.72,-3.38 -839.37,-18.7 -895.35,4.41l9.34 -2.28z"/>
   <path class="fil25" d="M6828.06 3906.91l27.03 -5.35c1.22,-3.54 5.73,3.69 8.7,5.35 -3.06,1.88 -7.16,5.9 -8.71,6.32l-17.91 0c-1.31,-3.52 -5.94,-4.41 -9.1,-6.32zm-72.8 0c40.88,-26.49 25.78,-5.81 36.52,0 -1.78,1.18 15.65,43.15 -36.52,0zm-397.47 250.18l76.4 6.12 -22.37 -74.09 440.71 -1.41c-1.27,3.33 -4.33,4.5 -4.92,11.25l-7.5 24.66c-4.02,24.18 -4.85,7.39 -1.94,39.89l59.72 -5.5 0.44 -292.41c-78.77,-11.83 -469.98,-16.94 -531.24,5.19 -1.92,79.24 16.8,221.7 -9.3,286.31z"/>
   <polygon class="fil19" points="3428.62,6318.13 3432.62,7686.54 3521.46,7684.78 3523.45,6298.56 "/>
   <path class="fil26" d="M5197.55 7542.85c63.09,39.44 351.48,14.76 449.78,12.99 -11.88,-222.07 35.68,-260.13 -114.32,-392.89 -377.87,16.49 -98.69,285.26 -335.46,379.89z"/>
   <path class="fil20" d="M6225.74 5531.28c59.42,6.59 68.07,13.52 114.9,42.36l-73.14 -141.07c-16.74,25.8 17.19,26.23 -119.02,23.76 -562,-10.15 -1558.81,29.32 -1986.88,-1.38l-38.61 -63.57 65.18 126.9c240.1,5.25 1978.73,-25.95 2037.57,13z"/>
   <path class="fil20" d="M3171.98 4829.87c64.85,26.02 167.61,16.7 238.79,6.16l-1.11 -388.35 -245.21 0.28c30.67,69.06 19.61,122.67 19.5,199.96 -0.05,32.64 1.24,66.61 0.86,98.88 -0.58,49.74 5.06,49.76 -12.83,83.07z"/>
   <path class="fil27" d="M7042.43 5559.27l-367.09 -635.33c72.49,-3.02 408.11,11.04 439.11,-11.51l-610.48 -8.28 38.43 33.87c165.24,131 243.49,441.14 374.58,618.72l125.45 2.53z"/>
   <path class="fil28" d="M1783.74 4340.52c-14.74,-43.75 -12.5,-61.44 -0.13,-101.17 62.42,-22.37 70.54,-20.35 114.31,14.72l13.25 -115.73 -14.34 -45.49 56.3 11.42c81.07,-1.65 129.45,5.01 208.44,-18.77l43.76 -21.51c1.37,-89.99 -59.14,-133.55 -154.12,-126.08 -65.23,5.12 -53.31,17.57 -97.8,38.59 -36.08,17.05 -71.04,15.85 -109.96,29.24 -155.73,53.6 -168.64,239.38 -59.71,334.77z"/>
   <polygon class="fil19" points="6801.32,6317.43 6802.21,7163.89 6890.25,7165.3 6889.18,6295.96 "/>
   <path class="fil29" d="M5160.2 6297.58c49.5,157.06 102.87,207.06 256.6,267.78 15.41,-97.44 40.13,-119.73 86.2,-188.4l5.49 -9.18c-79.2,-47.8 -211.53,-138.88 -348.29,-70.19z"/>
   <polygon class="fil30" points="6462.16,4106.8 6454.67,4277.61 6803.48,4276.69 6804.61,4115.02 "/>
   <path class="fil27" d="M3112.2 6421.6c54.8,-0.3 135.84,-37.12 195.06,-57.71 86.01,-29.89 130.62,-12.48 117.07,-136.1 -74.02,-31.07 -224.91,-16.41 -314.04,-8.51l1.91 202.31z"/>
   <path class="fil31" d="M6469.57 3737.93l332.61 1.27 -3.31 92.63 -334.89 -4.9 5.59 -89zm-39.57 443.87c32.46,17.96 25.53,3.13 25.53,116.51 -7.65,-58.33 -35.76,-137.64 6.63,-191.51l-34.41 -1.46c37.48,50.97 40.81,24.37 -0.11,71.7 -39.01,1.43 13.78,13.91 -29.75,-0.34 -24.05,-7.87 -30.07,-13.31 -40.09,-19.61 26.09,-64.61 7.38,-207.06 9.3,-286.31 61.26,-22.13 452.48,-17.02 531.24,-5.19l-0.44 292.41 -59.72 5.5c28.19,1.52 -15.46,-10.44 27.34,1.74l50.14 21.85c8.88,-66.43 9.48,-128 10.35,-210.66 1.68,-161.18 13.01,-114.18 -94.97,-153.41l-3.42 -106.89 -390.53 -6.26 -4.89 117.46 -93.35 13.72c-5.25,75.98 -2.27,146.83 -3.61,219.97 -1.9,103.84 -18.48,148.36 94.77,120.78z"/>
   <path class="fil32" d="M5508.5 6367.78l-5.49 9.18c25.73,16.24 11.16,2.5 34.81,27.9 12.85,13.79 21.02,28 28.56,41.74 21.8,39.76 28.93,69.23 38.77,108.45 123.34,-52.27 183.86,-119.09 221.32,-259.36l-0.9 -20.37c-219.46,0.18 -177.76,24.67 -317.07,92.46z"/>
   <path class="fil33" d="M1980.79 7718.07l-8.87 56.31c77.74,-0.7 430.11,30.14 464,-4.24 -51.72,-29.69 -95.41,-64.12 -152.39,-69.26l-46.99 7.09c24.35,-20.23 17.59,-8.79 21.11,-38.63l-26.33 -7.06c-24.86,22.08 7.46,17.18 -49.98,19.18 25.87,-34.66 11.61,-10.65 21.39,-39.91l-17.57 -8.1 -185.89 -0.96 -18.49 85.57z"/>
   <path class="fil33" d="M1421.58 7785.08c117.03,-26.68 319.97,0.08 448.24,-3.11 45.31,-28.7 32.51,3.6 -1.28,-26.82 -1.55,-1.39 -42.83,-23.48 -46.09,-25.24 -43.39,-23.38 -48.13,-33.6 -102.03,-33.05 -16.54,8.06 -15.21,15.94 -33.8,-3.14l32.88 -17.46 -16.63 -7.69 -71.93 11.86 23.13 -34.15c0.99,-5.07 4.91,-5.58 7.37,-8.36l-25.74 -8.35 -185.64 -3.04 -28.48 158.56z"/>
   <path class="fil27" d="M6801.32 6317.43l-6.56 -98.54 -309.74 3.98 -1.54 -8.99c23.28,65.73 12.87,141.92 19.43,219.7 60.19,-46.15 210.39,-70.8 298.42,-116.15z"/>
   <path class="fil34" d="M5416.81 6565.36c-3.36,137.8 16.21,205.94 92.08,280.25l14.01 -1.27c55.28,-95.66 89.15,-133 82.25,-289.3l-188.34 10.31z"/>
   <path class="fil35" d="M3197.97 3614.49c-33.78,70.39 40.85,162.96 -77.4,243.05 -79.1,53.57 -185.04,36.8 -245.7,-18.76 -94.61,-86.64 -119.65,-390.99 248.76,-302.19 -24.54,-55.44 -62.56,-72.94 -157.78,-55.87 -170.48,30.57 -236.02,234.33 -135.78,360.26 110.5,138.8 333.71,97.67 388.59,-67.32 16.15,-48.52 24.46,-123.64 -20.69,-159.16z"/>
   <path class="fil36" d="M7391.38 3777.91l-3.56 -117.23 117.95 1.67c-22.88,77.45 -30.46,97.77 -114.39,115.57zm-142.35 -117.08l117.74 1.33 -2.49 115.57c-81.76,-15.71 -95.61,-38 -115.26,-116.9zm139.03 -138.47c68.17,19.41 101.29,48.25 115.35,116.67l-113.6 0.81 -1.75 -117.48zm-136.61 117.37c16.31,-69.25 45.98,-97.31 114.18,-116.51l-0.87 115.69 -113.31 0.81zm-67.33 26.25c78.94,10.96 36.61,54.8 83.97,99.3 26.61,25 32,12.85 67.49,32.52 34.07,18.88 36.36,35.69 37.09,34.04 1.02,-2.31 3.7,5.88 5.69,8.73 35.44,-56.63 72.38,-37.61 109.74,-75.79 50.23,-51.32 -1.06,-89.37 83.78,-98.54 -3.69,-3.65 -8.3,-7.37 -11.38,-10.63l-42.01 -57.97c-71.12,-136.48 -85.33,-41.51 -140.13,-134.2 -32.76,45.31 8.24,15.76 -48.52,45.34 -70.75,36.87 -44.2,0.42 -96.79,97.26l-48.93 59.95z"/>
   <path class="fil37" d="M1260.72 4318.43c-15.07,-40.37 -347.99,-5.53 -410.02,-18.92l-3.96 -490.47 491.78 -3.9 4.48 577.2 14.41 25.31 4.47 -619.67 -524.78 -4.06 -7.19 533.06 430.8 1.44z"/>
   <path class="fil38" d="M1790.32 5583.72l-1.45 12.19 39.34 9.71c19.8,2.37 28.05,-0.12 55.52,3.59 39.54,51.78 5.19,40.24 41.82,26.3 22,-115.18 109.48,-558.76 153.91,-623.01l460.43 2.44c40.8,-14.49 0.52,8.25 30.24,-19.96l-392.73 -13.28c-160.86,-3 -130.51,-42.96 -193.6,242.24 -19.72,89.12 -52.2,283.24 -86.09,359.81l-107.39 -0.04z"/>
   <path class="fil39" d="M3508.81 4847.77c54.2,-16.91 39.48,-17.01 91.72,0.05l-2.86 -391.01 -77.85 -10.11c-30.74,91.06 -3.23,292.35 -11.02,401.07z"/>
   <path class="fil40" d="M1412.85 7837.49c23.54,-13.09 17.05,-15.64 17.05,11.62l490.33 -0.15 -37.63 -59.92c-2.23,-5.97 -8.5,-4.76 -12.78,-7.07 -128.26,3.2 -331.21,-23.56 -448.24,3.11l-8.73 52.41z"/>
   <path class="fil41" d="M3774.13 4837.04l3.81 70.26 -80.87 -0.78 0.25 -72.35 -96.78 13.65 -5.39 56.67 -75.6 2.34 -10.73 -59.06 -98.04 -11.73 -3.39 57.51 -4.76 16.55c65.66,-1.94 109.09,12.83 158.89,11.02 42.73,-1.56 36.07,-10.63 83.86,-11 45.61,-0.36 45.83,8.84 83.89,9.87 65.06,1.76 70.06,-11.5 153.79,-3.23 58.55,5.79 105.11,-7.51 171.13,-8.76l-1.51 -70.63 -100.57 9.29 -7.54 48.49c-0.48,-1.96 -3.77,7 -5.66,12.57l-60.98 -4.37 -3.7 -61.87 -94.47 -4.31 -5.85 -383.61 0.22 383.5z"/>
   <path class="fil42" d="M6462.16 4106.8l342.45 8.22 -1.13 161.67 -348.82 0.92 7.49 -170.8zm-104.36 50.29c10.02,6.31 16.04,11.74 40.09,19.61 43.53,14.25 -9.26,1.76 29.75,0.34 40.93,-47.33 37.59,-20.73 0.11,-71.7l34.41 1.46c-42.39,53.87 -14.27,133.18 -6.63,191.51 0,-113.38 6.94,-98.56 -25.53,-116.51l4.72 109.61c64.27,18.94 322.65,15.94 393.6,3.5l5.64 -100.17 81.69 -7.64 -50.14 -21.85c-42.8,-12.18 0.85,-0.22 -27.34,-1.74 -2.91,-32.49 -2.08,-15.71 1.94,-39.89l7.5 -24.66c0.59,-6.76 3.65,-7.92 4.92,-11.25l-440.71 1.41 22.37 74.09 -76.4 -6.12z"/>
   <polygon class="fil25" points="6463.99,3826.93 6798.87,3831.83 6802.19,3739.2 6469.57,3737.93 "/>
   <polygon class="fil20" points="3697.31,4834.17 3774.13,4837.04 3773.9,4453.54 3696.86,4446.42 "/>
   <path class="fil43" d="M3873.94 4836.35l78.15 10.3 -13.12 -397.32 -41.93 -2.67c-45.12,54.18 -17.7,313.19 -23.09,389.69z"/>
   <polygon class="fil40" points="1963.86,7850.1 2470.07,7849.64 2470.55,7801.52 1969.08,7787.4 "/>
   <path class="fil24" d="M2528.41 5459.59c19.43,-31.59 79.24,-76.23 89.8,-201.24 3.13,-36.97 4.75,-11.04 -5.32,-39.53l-22.29 -44.61c-18.83,20.67 -0.69,5 -26.18,17.87 -32.74,16.52 -73.19,18.17 -92.24,73.81 -27.49,80.3 -6.37,129.34 62.2,146.32l-5.96 47.38z"/>
   <path class="fil44" d="M5416.81 6565.36l188.34 -10.31c-9.84,-39.22 -16.97,-68.69 -38.77,-108.45 -7.54,-13.74 -15.71,-27.95 -28.56,-41.74 -23.65,-25.4 -9.08,-11.65 -34.81,-27.9 -46.07,68.67 -70.79,90.96 -86.2,188.4z"/>
   <polygon class="fil40" points="1999.28,7632.5 2185.17,7633.46 2181.31,7537.87 1991.85,7536.2 "/>
   <path class="fil45" d="M7103.11 5141.59l-37.15 -70.24 -212.99 -4.3c19.04,60.8 21.75,73.17 90.84,75.97 49.54,2 108.7,-1.03 159.3,-1.43z"/>
   <path class="fil45" d="M3781.72 7846.83c-20.35,-134.52 -73.94,-160.11 -213.56,-160.96 134.63,67.58 72.09,72.68 133.13,162.44l80.43 -1.48z"/>
   <path class="fil46" d="M2187.7 5752.36l15.2 166.01c20.47,-35.35 8.41,-58.57 20.13,-112.84l148.99 -112.2 -188.58 -3.61 4.26 62.63z"/>
   <path class="fil47" d="M933.63 4016.5c60.05,-1.83 139.89,-90.64 253.63,-28.54 7,3.82 32.8,22.38 34.94,23.14 2.57,0.91 6.72,2.49 9.23,2.99l19.2 -1.37c2.1,-0.12 6.87,-1.89 10.16,-3.24 -0.2,-7.06 26.22,14.39 -10.59,-27.7 -73.57,-84.11 -245.98,-57.2 -297.12,-12.29 -33.01,28.98 -17.41,-1.28 -19.44,47.02z"/>
   <path class="fil19" d="M7215.17 5255.73l75.8 5.19c-27.02,-68.46 -73.57,-132.59 -105.47,-193.44l-72.88 0.83 102.55 187.42z"/>
   <path class="fil48" d="M5012.35 3827.39c122.6,44.84 138.78,-61.67 99.62,-101.13 -7.09,-7.15 -110.72,-48.63 -115.8,40.24 -0.29,5.04 2.08,26.08 2.22,26.84 8.81,49.2 5.7,18.96 13.97,34.04z"/>
   <path class="fil49" d="M8015.67 5651.86c-25.28,101.45 16.06,134.04 109.02,91.89 14.43,-40.56 13.35,-46.66 2.85,-97.77 -28.82,-10.14 -13.85,-12.41 -50.86,-12.55 -63.29,-0.25 -60.96,18.4 -61.01,18.43z"/>
   <path class="fil48" d="M1091.5 5982.31l14.96 -47.47c1.88,-24.18 -1.76,-35.68 -4.24,-58.56 -52.74,-12.03 -117.64,-26.23 -123.2,44.6 -6.66,84.8 52.89,80.54 112.48,61.43z"/>
   <polygon class="fil40" points="1450.06,7626.52 1635.7,7629.56 1648.69,7551.01 1555.23,7553.15 1464.31,7554.23 "/>
   <path class="fil50" d="M3407.38 4893.54l3.39 -57.51c-71.18,10.54 -173.94,19.85 -238.79,-6.16l-11.22 69.15c27.98,7.02 184.94,-8.46 246.63,-5.48z"/>
   <path class="fil35" d="M3043.24 3707.27c28.88,-14.25 158.07,-146.58 164.54,-201.48 -50.12,14.73 -118.69,114.35 -142.79,156.26 -78.5,-29.47 -34.9,-45.72 -103.56,-60.97 8.63,51.93 46.74,78.76 81.82,106.19z"/>
   <path class="fil51" d="M6973.23 5305.03c40.2,18.49 310.1,19.94 343.13,2 -35.19,-39.05 -38.5,-25.63 -161.7,-22.65l-140.9 -0.1c-41.97,7.03 -24.06,4.93 -40.53,20.76z"/>
   <path class="fil12" d="M7366.78 3662.15l-117.74 -1.33c19.65,78.9 33.5,101.19 115.26,116.9l2.49 -115.57z"/>
   <path class="fil12" d="M7391.38 3777.91c83.93,-17.8 91.51,-38.12 114.39,-115.57l-117.95 -1.67 3.56 117.23z"/>
   <path class="fil49" d="M7389.82 3639.83l113.6 -0.81c-14.06,-68.42 -47.19,-97.26 -115.35,-116.67l1.75 117.48z"/>
   <path class="fil12" d="M7251.46 3639.72l113.31 -0.81 0.87 -115.69c-68.2,19.19 -97.87,47.26 -114.18,116.51z"/>
   <polygon class="fil52" points="3428.62,6318.13 3523.45,6298.56 3531.44,6209.81 3439.13,6218.14 "/>
   <path class="fil31" d="M2338.62 5325.94c70.46,-163.44 -188.43,-46.81 -54.18,9.82 30.84,13.01 44.04,-4.12 54.18,-9.82z"/>
   <polygon class="fil52" points="6801.32,6317.43 6889.18,6295.96 6884.93,6219.2 6794.76,6218.89 "/>
   <path class="fil47" d="M996.12 4068.78c51.29,36.09 22.08,1.07 92.37,-5.1 77.41,-6.8 46.67,38.32 110.83,13.38 -37.86,-85.59 -147.78,-62.51 -203.2,-8.28z"/>
   <path class="fil53" d="M6929.68 5221.16l15.29 30.71 220.61 1.59c-0.89,-4.57 -3.57,-19.13 -4.54,-22.04l-7.97 -21.87c-0.93,-2.5 -3.34,-7.28 -4.97,-10.94 -17.18,14.16 -5.37,22.88 -76.78,24.76l-141.64 -2.2z"/>
   <path class="fil54" d="M1969.08 7787.4l501.47 14.12 -34.63 -31.38c-33.89,34.38 -386.26,3.54 -464,4.24l8.87 -56.31c-16.21,23.52 -33.99,33.45 -11.71,69.33z"/>
   <path class="fil55" d="M6907.69 5179.2c36.06,16.98 178.5,21.67 218.41,0 -21.73,-16.94 48.98,-17.58 -111.27,-17.43 -14.52,0.02 -45.2,-1.83 -57.35,-0.9 -66.96,5.11 -37.27,6.45 -49.78,18.33z"/>
   <polygon class="fil50" points="3774.13,4837.04 3697.31,4834.17 3697.06,4906.52 3777.94,4907.3 "/>
   <path class="fil56" d="M7024.05 5388.92c45.02,22.57 191.73,22.65 224.45,-1.54 -33.06,-20.76 -57.15,-13.14 -107.76,-13.3 -15.72,-0.05 -42.96,-1.7 -56.99,-0.92l-59.69 15.76z"/>
   <path class="fil57" d="M3600.54 4847.82c-52.24,-17.06 -37.52,-16.96 -91.72,-0.05l10.73 59.06 75.6 -2.34 5.39 -56.67z"/>
   <path class="fil58" d="M7004.51 5346.98c32.87,25.04 55.52,15.52 108.19,15.55 15.33,0.01 44.01,1.71 57.37,0.84 0.63,-0.04 21.17,-1.31 25.48,-2.29 32.7,-7.49 12.33,-3.36 25.09,-14.1 -51.85,-18.01 -171.17,-17.9 -216.14,0z"/>
   <polygon class="fil47" points="1060.57,4194.3 1129.84,4205.15 1134.06,4129.87 1065.18,4131.98 "/>
   <path class="fil57" d="M3952.09 4846.65l-78.15 -10.3 0.28 5.12 3.7 61.87 60.98 4.37c1.89,-5.57 5.18,-14.54 5.66,-12.57l7.54 -48.49z"/>
   <polygon class="fil59" points="7283.62,5398.35 7359.97,5399.51 7328.22,5340.87 7259.17,5337.73 "/>
   <path class="fil60" d="M7148.1 5198.6l-175.18 7.1c-87.03,-0.95 -18.24,-3.18 -43.24,15.46l141.64 2.2c71.41,-1.87 59.61,-10.59 76.78,-24.76z"/>
   <path class="fil61" d="M1851.46 4407.26l21.07 -58.52 -88.79 -8.21c27.82,54.76 19.78,48.4 67.71,66.74z"/>
   <path class="fil62" d="M1553.31 5079.4c39.15,-9.4 120.07,-77.53 143.46,-105.48 -44.25,4.51 -36.59,11.29 -74.81,40.03 -30.87,23.22 -51.2,35.75 -68.65,65.46z"/>
   <path class="fil63" d="M1903.82 5934.19l57.78 -3.78c23.3,-8.88 49.42,-21.43 68.89,-28.75 -21,-17.21 36.7,-41.94 -57.08,-7.89 -29.44,10.69 -50.35,25.5 -69.59,40.41z"/>
   <path class="fil64" d="M7165.58 5253.45l-220.61 -1.59c36.68,21.94 193.7,23.75 220.61,1.59z"/>
   <path class="fil61" d="M1972.05 4172.06c6.92,5.12 -18.68,22.5 44.24,11.22 48.38,-8.67 35.36,-15.92 44.73,-24.71 -40.67,-26.47 -59.74,-12.54 -88.97,13.49z"/>
   <path class="fil38" d="M1950.28 4486.12l-1.53 3.08c11.11,47.64 14.99,37.3 46.66,73.62l2.08 -78.84 -47.22 2.14z"/>
   <path class="fil65" d="M4008.3 4544.84c31,-39.77 31.08,-29.13 -13.4,-53.53 -12.19,16.14 -26.34,-22.8 -14.79,29.6 7.31,33.15 1.03,14.15 28.19,23.93z"/>
   <path class="fil65" d="M3627.94 4507.96c-5.4,37.47 47.17,66.62 40.84,-9.47 -74.83,-17.41 -19.23,-4.07 -40.84,9.47z"/>
   <path class="fil66" d="M2121.41 4334.39c1.53,-2.02 58.69,16.16 0,-67.37 -0.23,0.56 -8.71,-4.49 -8.43,32.93 0.37,48.42 -1.7,11.24 8.43,34.44z"/>
   <path class="fil65" d="M3480.31 4507.79l-17.82 -11.19c-56.44,-6.56 20.84,-2.18 -23.52,0.95 -4.06,80.53 46.26,44.7 41.35,10.23z"/>
   <path class="fil65" d="M3804.57 4500.94c-3.29,40.84 -9.25,14.79 12.02,43.14 46.53,-17.16 32.67,-6.28 30.13,-39.12l-42.16 -4.02z"/>
   <path class="fil66" d="M1873.35 4319.64c-16.34,-71.53 5.28,-47.55 -66.77,-63.35l66.77 63.35z"/>
   <path class="fil67" d="M1702.88 7668.57c-41.13,-25.86 -7.13,-0.68 -41.44,-30.65 -2.46,2.78 -6.38,3.29 -7.37,8.36l-23.13 34.15 71.93 -11.86z"/>
   <path class="fil66" d="M2118.53 4368.29c-4.48,-3.11 14.17,-11.74 -74.13,-21.14 8.68,15.98 11.03,38.36 74.13,21.14z"/>
   <path class="fil67" d="M2231.33 7662.29c-18.79,-39.73 2.41,-8.3 -28.59,-20.73 -9.78,29.26 4.48,5.25 -21.39,39.91 57.44,-2 25.12,2.9 49.98,-19.18z"/>
   <path class="fil68" d="M2283.53 7700.89c-0.57,-55.97 6.69,-23.81 -25.87,-31.54 -3.52,29.84 3.23,18.4 -21.11,38.63l46.99 -7.09z"/>
   <path class="fil38" d="M2200.55 4181.13c-19.09,-34.5 4.43,-21.04 -24.34,-32.93l-22.19 23.36c30.79,9.73 11.84,4.76 46.53,9.57z"/>
   <path class="fil33" d="M2208.43 4315.13l-11.61 -74.07c-7.88,22.69 -14.48,11.19 -7.47,42.74 9.22,41.47 -8.22,5.05 19.08,31.33z"/>
   <path class="fil37" d="M6755.27 3906.91c52.17,43.15 34.74,1.18 36.52,0 -10.74,-5.81 4.36,-26.49 -36.52,0z"/>
   <path class="fil69" d="M5924.07 6907.87c74.12,-29.2 28.56,-10.83 47.27,-40.81 -31.04,14.32 -10.72,2.57 -32.56,20.16 -2.33,1.88 -6.13,12.55 -7.81,9.86 -1.72,-2.74 -4.52,7.24 -6.9,10.79z"/>
   <path class="fil53" d="M1720.42 7696.86l-0.92 -20.61 -32.88 17.46c18.58,19.08 17.25,11.2 33.8,3.14z"/>
   <path class="fil69" d="M6023.92 6416.83l-3.96 -27.17c-5.24,-32.44 -0.74,-1.21 -30.07,-13.26l34.03 40.43z"/>
   <polygon class="fil70" points="5546.75,6872.47 5522.89,6844.34 5508.89,6845.61 5508.89,6859.62 "/>
   <path class="fil71" d="M4123 5391.37l-12.93 -30.5c0,-30.22 6.9,-27.61 -18.53,-11.63l31.46 42.13z"/>
   <path class="fil72" d="M1742.94 5628.85c10.03,-10.24 18.89,-20.65 27.4,-32.56l-28.04 4.74 0.64 27.82z"/>
   <polygon class="fil73" points="1911.19,4138.35 1907.35,4101.34 1953.14,4104.28 1896.84,4092.86 "/>
   <path class="fil71" d="M6133.49 5221.37c2.18,10.35 -10.38,12.84 31.83,53.41l-31.83 -53.41z"/>
   <path class="fil31" d="M6828.06 3906.91c3.16,1.91 7.79,2.8 9.1,6.32l17.91 0c1.55,-0.42 5.66,-4.44 8.71,-6.32 -2.97,-1.67 -7.48,-8.89 -8.7,-5.35l-27.03 5.35z"/>
   <path class="fil71" d="M6133.49 5221.37c-6.44,-24.44 0.36,-16.77 -14.59,-40.5l0.65 27.51c1.51,1.87 5.59,5.16 6.87,6.57 1.27,1.43 4.79,4.2 7.08,6.42z"/>
   <path class="fil44" d="M1948.75 4489.2l1.53 -3.08 -34.58 -31.57c15.13,26.92 18.72,24.23 33.06,34.65z"/>
   <path class="fil66" d="M1661.97 5568.44l35.17 6c-0.64,-0.33 -30.24,-10.06 -35.17,-6z"/>
   <path class="fil61" d="M2034.83 4256.44c-2.89,26.37 27.84,-7.04 11.69,-4.41 -0.02,0 -1.52,0.21 -1.59,0.23 -48.11,15.38 -4.17,-49.92 -10.1,4.18z"/>
   <path class="fil61" d="M2148.73 4256.44c-3.87,27.05 26.45,-6.35 11.14,-4.13 -0.02,0 -1.44,0.17 -1.5,0.19 -45.79,14.23 -2,-49.29 -9.63,3.94z"/>
  </g>
 </g>
</svg>
