<?xml version="1.0" encoding="UTF-8"?>
<!DOCTYPE svg PUBLIC "-//W3C//DTD SVG 1.1//EN" "http://www.w3.org/Graphics/SVG/1.1/DTD/svg11.dtd">
<!-- Creator: CorelDRAW 2018 (64-Bit Evaluation Version) -->
<svg xmlns="http://www.w3.org/2000/svg" xml:space="preserve" width="8.5in" height="11in" version="1.1" style="shape-rendering:geometricPrecision; text-rendering:geometricPrecision; image-rendering:optimizeQuality; fill-rule:evenodd; clip-rule:evenodd"
viewBox="0 0 8500 11000"
 xmlns:xlink="http://www.w3.org/1999/xlink"
 data-name="Layer 3">
 <defs>
  <style type="text/css">
   <![CDATA[
    .fil0 {fill:#00BFD8}
    .fil1 {fill:#FDFDFD}
   ]]>
  </style>
 </defs>
 <g id="Layer_x0020_1">
  <metadata id="CorelCorpID_0Corel-Layer"/>
  <path class="fil0" d="M3622.75 6389.87c504.41,-549.25 1577.63,-2167.58 2084.12,-2749.76 357.02,-410.36 938.83,-46.06 745.61,429.63l-2069.33 2773.19c-227.64,301.34 -495.7,612.1 -664.63,902.44 -153.27,-69.48 -1585.55,-1569.37 -1649.4,-1678.83 -248.81,-426.64 280.63,-909.13 715.57,-491.9 222.15,213.09 599.04,732.19 838.06,815.24zm105.58 -4886.77c-2315.6,349.9 -3799.17,2393.52 -3477.34,4546.96 300.49,2010.78 2184.94,3813.53 4550.56,3446.13 2241.44,-348.11 3775.4,-2386.41 3446.74,-4549.64 -305.09,-2007.98 -2159.55,-3800.11 -4519.96,-3443.44z"/>
  <path class="fil1" d="M3622.75 6389.87c-239.02,-83.06 -615.91,-602.15 -838.06,-815.24 -434.94,-417.24 -964.38,65.26 -715.57,491.9 63.85,109.47 1496.13,1609.36 1649.4,1678.83 168.93,-290.34 436.99,-601.09 664.63,-902.44l2069.33 -2773.19c193.22,-475.69 -388.59,-839.99 -745.61,-429.63 -506.49,582.18 -1579.71,2200.51 -2084.12,2749.76z"/>
 </g>
</svg>
