<?xml version="1.0" encoding="UTF-8"?>
<!DOCTYPE svg PUBLIC "-//W3C//DTD SVG 1.1//EN" "http://www.w3.org/Graphics/SVG/1.1/DTD/svg11.dtd">
<!-- Creator: CorelDRAW 2018 (64-Bit Evaluation Version) -->
<svg xmlns="http://www.w3.org/2000/svg" xml:space="preserve" width="8.5in" height="11in" version="1.1" style="shape-rendering:geometricPrecision; text-rendering:geometricPrecision; image-rendering:optimizeQuality; fill-rule:evenodd; clip-rule:evenodd"
viewBox="0 0 8500 11000"
 xmlns:xlink="http://www.w3.org/1999/xlink"
 data-name="Layer 2">
 <defs>
  <style type="text/css">
   <![CDATA[
    .fil0 {fill:#00BFD8}
   ]]>
  </style>
 </defs>
 <g id="Layer_x0020_1">
  <metadata id="CorelCorpID_0Corel-Layer"/>
  <g id="_1181155472">
   <path class="fil0" d="M1873.72 8796.13l4747.9 0.4 2.17 323.73 -4748.6 0.57 -1.46 -324.7zm-266.36 320.11c-74.47,12.19 -481.9,9.05 -547.83,-7.62 -139.41,-35.25 -246.83,-140.63 -278.67,-288.1 -23.04,-106.76 -6.91,-1454.77 -8.26,-1687.07 -1.57,-268.77 -66.75,-720.3 412.41,-717.11 188.96,1.26 378.31,-0.37 567.31,-0.37l0.59 390.23 4990.04 0.04 2.44 -389.46c190.2,0 380.59,-2.6 569.69,-0.76 190.59,1.86 303.8,79.83 366.36,200.01 82.22,157.96 45.21,847.52 46.04,1083.8 0.6,169.17 12.29,1022.94 -8.64,1120.34 -31.1,144.76 -138.42,253.92 -278.55,289.8 -76.85,19.67 -453.48,15.46 -549.12,7.85 -9.04,-246.57 63.44,-562.91 -218.71,-585.88l-805.06 -1.33c-536.62,4.65 -1074.43,-4.5 -1611.06,-0.09 -536.61,4.41 -1074.2,-4.24 -1611.06,-0.09 -264.51,2.04 -544,-9.94 -806.06,0.57 -308.92,12.39 -225.58,373.93 -231.87,585.24zm413.37 -2578.19c-20.7,-274.34 -4.26,-632.61 -2.5,-914.97l-0.15 -3222.11c1.06,-165.4 -2.66,-259.57 93.22,-357.86 74.4,-76.28 157.7,-141.1 307.5,-158.98 146.07,-17.44 2036.41,-5.85 2281.35,-5.85 -3.19,277.5 -3.42,560.19 -0.84,837.71 2.63,282.78 116.23,436.67 275.61,552.38 211.69,153.69 380.72,145.03 678.52,146.94 186.96,1.2 675.81,-23.09 826.16,7.24l-1.64 3118.17 -4457.22 -2.67zm4221.31 -3388.01c-200.23,1.37 -400.89,-0.02 -601.19,0.27 -217.19,0.31 -338.37,14.59 -504.55,-93.66 -149.04,-97.08 -170.3,-207.32 -170.62,-429.13 -0.23,-159.19 -16.66,-438.53 3.65,-583.62 15.67,15.28 43.61,31.59 74.17,60.61 179.98,170.87 556.52,463.75 729.7,629.81 47.63,45.67 115.41,93.51 163.04,139.2 56.63,54.33 284.8,230.18 305.8,276.51zm-4492.42 3000.19c-450.71,-1.39 -956.53,-92.96 -1176.59,358.19 -70.12,143.74 -67.99,273.5 -66.35,448.82 3.19,339.37 -0.75,679.91 0.34,1019.5 0.77,239.16 -30.27,809.64 39.52,991.56 84.53,220.32 296.93,415.81 600.62,418.46 343.04,3 689.26,1.24 1032.43,-0.61 1373.76,-7.39 2740.98,6.07 4115.74,0.78 343.61,-1.32 689.05,3.93 1032.3,-0.3 330.48,-4.06 526.45,-179.05 620.28,-411.07 73.95,-182.88 46.09,-737.65 46.29,-973.65 0.29,-343.2 4.11,-689.57 -0.1,-1032.08 -3.74,-304.14 -7.6,-529.72 -308.26,-723.41 -221.67,-142.8 -640.34,-95.47 -938.16,-95.47 -15.72,-279.7 1.45,-584.23 -2.78,-867.7l0.7 -1762.09c2.7,-257.62 26.68,-293.23 -70.14,-367.54 -36.43,-27.96 -84.22,-70.03 -115.26,-98.92l-358.85 -308.2c-82.96,-72.72 -149.96,-133.81 -235.09,-205.02 -298.6,-249.78 -642.09,-564.13 -947.03,-815.43 -135.91,-112 -91.32,-111.32 -322.38,-113.38 -145.39,-1.3 -295.22,-1.57 -440.53,0.26 -586.37,7.41 -1175.62,-2.32 -1762.51,0.69 -265.4,1.36 -483.61,124.75 -602.76,272.32 -164.51,203.74 -138.24,436.17 -139.3,741.58l1.01 3083.66c0.39,134.63 8.37,309.04 -3.17,439.05z"/>
   <polygon class="fil0" points="2545.48,5960.59 5957.81,5960.72 5957.61,5694.87 2541.53,5694.57 "/>
   <path class="fil0" d="M2550.74 4887.8c-17.31,58.68 -15.08,203.06 -2.76,265.03l3403.19 0.11c12.3,-58.35 14.41,-210.07 -0.51,-265.76l-3399.92 0.62z"/>
   <polygon class="fil0" points="2542.67,4342.45 5959.07,4342.76 5955.26,4077.71 2543.75,4076.52 2542.67,4226 "/>
   <polygon class="fil0" points="2544.04,2724.94 4353.06,2724.75 4354.64,2461.91 2542.67,2458.96 "/>
   <polygon class="fil0" points="2544.15,3534.73 4354.06,3532.84 4354.13,3269.2 2543.05,3269.63 "/>
   <path class="fil0" d="M7147.81 6825.42c-218.58,79.85 -111.81,394.9 109.01,337.25 224.16,-58.53 120.38,-421.05 -109.01,-337.25z"/>
   <path class="fil0" d="M7159.62 7600.81c-88.06,27.67 -154.86,96.93 -124.91,216.37 21.93,87.47 117.95,151.13 225.58,118.51 209.39,-63.47 125.28,-405.88 -100.67,-334.88z"/>
   <path class="fil0" d="M7030.8 8580.89c30.87,205.26 392.63,172.5 347.29,-74.07 -39.07,-212.45 -383.17,-164.56 -347.29,74.07z"/>
  </g>
 </g>
</svg>
