<?xml version="1.0" encoding="UTF-8"?>
<!DOCTYPE svg PUBLIC "-//W3C//DTD SVG 1.1//EN" "http://www.w3.org/Graphics/SVG/1.1/DTD/svg11.dtd">
<!-- Creator: CorelDRAW 2018 (64-Bit Evaluation Version) -->
<svg xmlns="http://www.w3.org/2000/svg" xml:space="preserve" width="8.5in" height="11in" version="1.1" style="shape-rendering:geometricPrecision; text-rendering:geometricPrecision; image-rendering:optimizeQuality; fill-rule:evenodd; clip-rule:evenodd"
viewBox="0 0 8500 11000"
 xmlns:xlink="http://www.w3.org/1999/xlink"
 data-name="Layer 3">
 <defs>
  <style type="text/css">
   <![CDATA[
    .fil0 {fill:#00BFD8}
    .fil1 {fill:#FDFDFD}
   ]]>
  </style>
 </defs>
 <g id="Layer_x0020_1">
  <metadata id="CorelCorpID_0Corel-Layer"/>
  <path class="fil0" d="M4055.56 5776.33c156.32,-170.22 488.93,-671.76 645.89,-852.19 110.65,-127.18 290.96,-14.28 231.07,133.15l-641.31 859.44c-70.55,93.39 -153.62,189.7 -205.98,279.68 -47.5,-21.53 -491.38,-486.37 -511.17,-520.29 -77.11,-132.22 86.97,-281.75 221.76,-152.44 68.85,66.04 185.65,226.91 259.72,252.65zm32.72 -1514.47c-717.63,108.44 -1177.41,741.78 -1077.67,1409.16 93.13,623.17 677.14,1181.86 1410.27,1068 694.65,-107.88 1170.04,-739.58 1068.19,-1409.99 -94.55,-622.3 -669.27,-1177.7 -1400.79,-1067.17z"/>
  <path class="fil1" d="M4055.56 5776.33c-74.07,-25.74 -190.88,-186.61 -259.72,-252.65 -134.8,-129.31 -298.87,20.22 -221.76,152.44 19.79,33.93 463.67,498.76 511.17,520.29 52.35,-89.98 135.43,-186.29 205.98,-279.68l641.31 -859.44c59.88,-147.42 -120.43,-260.32 -231.07,-133.15 -156.97,180.43 -489.57,681.96 -645.89,852.19z"/>
 </g>
</svg>
