<?xml version="1.0" encoding="UTF-8"?>
<!DOCTYPE svg PUBLIC "-//W3C//DTD SVG 1.1//EN" "http://www.w3.org/Graphics/SVG/1.1/DTD/svg11.dtd">
<!-- Creator: CorelDRAW 2018 (64-Bit Evaluation Version) -->
<svg xmlns="http://www.w3.org/2000/svg" xml:space="preserve" width="8.5in" height="11in" version="1.1" style="shape-rendering:geometricPrecision; text-rendering:geometricPrecision; image-rendering:optimizeQuality; fill-rule:evenodd; clip-rule:evenodd"
viewBox="0 0 8500 11000"
 xmlns:xlink="http://www.w3.org/1999/xlink"
 data-name="Layer 1">
 <defs>
  <style type="text/css">
   <![CDATA[
    .fil9 {fill:#373435}
    .fil10 {fill:#ED3237}
    .fil0 {fill:#00BFD8}
    .fil6 {fill:#2F343A}
    .fil7 {fill:#A0B2BE}
    .fil1 {fill:#D9A78C}
    .fil3 {fill:#E6E7E8}
    .fil4 {fill:#EAC0A7}
    .fil2 {fill:#F1F2F2}
    .fil5 {fill:#F2D7BC}
    .fil8 {fill:white}
   ]]>
  </style>
 </defs>
 <g id="Layer_x0020_1">
  <metadata id="CorelCorpID_0Corel-Layer"/>
  <rect class="fil0" y="1250" width="8500" height="8500"/>
  <polygon class="fil1" points="4949.25,8799.91 4266.7,9666.96 3550.92,8799.91 3550.92,7349.64 4949.25,7349.64 "/>
  <path class="fil2" d="M3550.91 8263.39c0,0 -1499.23,194.31 -1695.58,398.82 -234.09,243.93 -463.33,426.23 -608.66,1087.79l3003.31 0 0 -166.09 -699.07 -1320.52z"/>
  <path class="fil3" d="M4949.26 8263.39c0,0 1499.13,194.31 1695.47,398.82 170.93,178.18 526.43,713.44 608.6,1087.79l-3003.35 0 0 -166.09 699.28 -1320.52z"/>
  <path class="fil4" d="M4250.03 2962.14c678.93,0 1752.63,385.99 1752.63,2194.63 0,1044.22 -340.46,1728.33 -488.8,1917.6 -136.49,174.12 -903.8,545.19 -1263.84,545.19l-0.01 -4657.42 0.01 0z"/>
  <path class="fil4" d="M6340.43 5588.02c29.9,-289 -107.74,-545.41 -307.49,-572.84 -199.74,-27.43 -385.99,184.65 -415.94,473.65 -30,288.88 107.74,545.28 307.54,572.72 199.74,27.32 385.88,-184.65 415.89,-473.54z"/>
  <path class="fil5" d="M4250.03 2962.14c-678.94,0 -1752.64,385.99 -1752.64,2194.63 0,1044.22 340.46,1728.33 488.79,1917.6 136.49,174.12 903.8,545.19 1263.84,545.19l0 -4657.42z"/>
  <path class="fil5" d="M2159.69 5588.02c-29.95,-289 107.74,-545.41 307.43,-572.84 199.85,-27.43 385.98,184.65 415.99,473.65 29.95,288.88 -107.8,545.28 -307.54,572.72 -199.74,27.32 -385.97,-184.65 -415.88,-473.54z"/>
  <path class="fil6" d="M2592.7 5653.36l132.02 0c0,0 -80.31,-393.81 155.23,-520.96l0 -254.38c0,0 -91.02,-8.17 -91.02,-307.58 0,-299.51 465.65,-512.8 1461.09,-512.8l0 -1095.39c0,0 -1967.8,32.11 -1967.8,1126.72l-0 1059.85c16.54,-1.92 33.26,-2.91 49.97,-2.91 70.6,0 139.38,17.33 196.2,49.41 110.68,71.11 64.29,458.04 64.29,458.04z"/>
  <path class="fil6" d="M5907.41 5653.36l-132.01 0c0,0 80.25,-393.81 -155.18,-520.96l0 -254.38c0,0 90.97,-8.17 90.97,-307.58 0,-299.51 -465.65,-512.8 -1461.15,-512.8l0 -1095.39c0,0 1967.79,-34.41 1967.79,1060.16l0 1126.42c-16.52,-1.92 -33.24,-2.91 -49.96,-2.91 -70.6,0 -139.39,17.33 -196.22,49.41 -110.62,71.09 -64.24,458.02 -64.24,458.02z"/>
  <polygon class="fil7" points="4250.04,9583.91 3774.85,8397.22 3599.41,9129.07 "/>
  <polygon class="fil8" points="3531.15,8095.3 3780.59,8419.5 3599.41,9129.07 3216.23,8612.19 "/>
  <polygon class="fil7" points="4250.09,9583.91 4680.4,8378.14 4900.76,9129.07 "/>
  <polygon class="fil8" points="4968.89,8095.3 4674.62,8400.33 4900.76,9129.07 5317.13,8612.19 "/>
  <path class="fil8" d="M4249.98 6840.56c316.48,0 573,-104.45 573,-233.48l-1146.01 0c0,129.03 256.52,233.48 573,233.48z"/>
  <g id="_1192359328">
   <path class="fil9" d="M3618.54 6408.18c0,0 523.11,154.02 679.07,116.08 155.97,-37.93 -107.62,-246.7 -679.07,-116.08z"/>
   <path class="fil9" d="M4881.47 6408.18c0,0 -523.11,154.02 -679.08,116.08 -155.96,-37.93 107.62,-246.7 679.08,-116.08z"/>
  </g>
  <polygon class="fil10" points="3852.46,9305.97 3658.8,9750 4249.98,9750 4249.98,9646.7 4249.98,9583.91 4249.94,9583.84 4127.31,9498.11 "/>
  <polygon class="fil10" points="4646.59,9305.97 4840.25,9750 4249.07,9750 4249.07,9646.7 4249.07,9583.91 4249.11,9583.84 4371.74,9498.11 "/>
 </g>
</svg>
